<svg xmlns="http://www.w3.org/2000/svg" viewBox="0 0 520 280" width="520" height="280">
<defs>
<marker id="ah" viewBox="0 0 10 10" refX="9" refY="5" markerWidth="7" markerHeight="7" orient="auto-start-reverse"><path d="M0,0 L10,5 L0,10 z" fill="#1f5fa8"/></marker>
<marker id="ak" viewBox="0 0 10 10" refX="9" refY="5" markerWidth="6" markerHeight="6" orient="auto-start-reverse"><path d="M0,0 L10,5 L0,10 z" fill="#0b2545"/></marker>
</defs>
<style>text{font-family:Helvetica,Arial,sans-serif;font-size:14px;fill:#0b2545}
.s{font-size:12px;fill:#6b7a90} .i{font-style:italic}</style>
<rect width="520" height="280" rx="10" fill="#ffffff"/>
<polygon points="110.0,215.0 360.0,215.0 360.0,223.0 110.0,223.0" fill="#e3a57a" stroke="#c0591c" stroke-width="1.5" stroke-linejoin="round"/>
<polygon points="360.0,215.0 442.5,155.0 442.5,163.0 360.0,223.0" fill="#d98d5c" stroke="#c0591c" stroke-width="1.5" stroke-linejoin="round"/>
<polygon points="110.0,215.0 360.0,215.0 442.5,155.0 192.5,155.0" fill="#f6c9a4" stroke="#c0591c" stroke-width="1.5" stroke-linejoin="round"/>
<line x1="23.8" y1="187.0" x2="398.8" y2="187.0" stroke="#1f5fa8" stroke-width="2" marker-end="url(#ah)"/>
<line x1="51.2" y1="167.0" x2="426.2" y2="167.0" stroke="#1f5fa8" stroke-width="2" marker-end="url(#ah)"/>
<line x1="78.8" y1="147.0" x2="453.8" y2="147.0" stroke="#1f5fa8" stroke-width="2" marker-end="url(#ah)"/>
<text x="78.8" y="135.0"><tspan class="i">U</tspan><tspan dy="4" font-size="10">∞</tspan><tspan dy="-4">, </tspan><tspan class="i">T</tspan><tspan dy="4" font-size="10">∞</tspan></text>
<text x="200.2" y="213.0" class="s">heated surface, <tspan class="i">T</tspan><tspan dy="3" font-size="9">w</tspan></text>
<text x="22.0" y="227.0" class="s">leading edge</text>
<line x1="110.0" y1="245.0" x2="360.0" y2="245.0" stroke="#0b2545" stroke-width="1" marker-start="url(#ak)" marker-end="url(#ak)"/>
<text x="235.0" y="263.0" text-anchor="middle" class="i">L</text>
<line x1="382.0" y1="223.0" x2="464.5" y2="163.0" stroke="#0b2545" stroke-width="1" marker-start="url(#ak)" marker-end="url(#ak)"/>
<text x="437.2" y="205.0" class="s">span</text>
<text x="508" y="266" text-anchor="end" class="s">span is very wide: the model is 2D</text>
</svg>